<svg xmlns="http://www.w3.org/2000/svg" width="1920" height="240" viewBox="0 0 1920 240">
    <defs>
        <linearGradient id="linear-gradient" x1=".5" x2=".5" y2="1" gradientUnits="objectBoundingBox">
            <stop offset="0" stop-color="#e6e9ef"/>
            <stop offset="1" stop-color="#fff" stop-opacity="0"/>
        </linearGradient>
        <clipPath id="clip-path">
            <path id="Rectangle_5923" fill="#fff" d="M0 0H1920V240H0z" transform="translate(0 64)"/>
        </clipPath>
        <style>
            .cls-4{fill:url(#linear-gradient)}
        </style>
    </defs>
    <g id="graph" clip-path="url(#clip-path)" transform="translate(0 -64)">
        <g id="Group_15885" opacity="0.4" transform="translate(-4318.007 -1182)">
            <path id="Path_20558" d="M1365.173 26.8l18.19 18.235h28.137l21.84 21.9a5.419 5.419 0 0 0 .567 6.768 5.31 5.31 0 0 0 7.5-7.52 5.147 5.147 0 0 0-6.748-.564l-22.421-22.465h-28.128l-17.623-17.672a5.419 5.419 0 0 0-.567-6.768 5.31 5.31 0 0 0-7.5 7.52 5.365 5.365 0 0 0 6.753.566z" class="cls-4" transform="translate(4757.067 1011.491)"/>
            <path id="Path_20559" d="M1381.852 155.939a5.31 5.31 0 1 0-7.5 7.52 5.166 5.166 0 0 0 6.762.564l19.877 19.927v-40.983l-24.661-24.627v-43.8l15.935-15.04 34.613 34.685a5.4 5.4 0 0 0 .553 6.768 5.31 5.31 0 0 0 7.5-7.52 5.146 5.146 0 0 0-6.748-.564l-35.918-36-17.82 16.919v45.4l24.675 24.627v35.719l-16.7-16.731a5.526 5.526 0 0 0-.567-6.861z" class="cls-4" transform="translate(4762.137 1024.193)"/>
            <path id="Path_20560" d="M1408.366 160.8a5.253 5.253 0 1 0 6.195-5.17v-40.7l-18.19-18.23a5.419 5.419 0 0 0-.567-6.768 5.31 5.31 0 0 0-7.5 7.52 5.148 5.148 0 0 0 6.749.564l17.636 17.672v39.949a5.112 5.112 0 0 0-4.323 5.17z" class="cls-4" transform="translate(4766.571 1034.274)"/>
            <path id="Path_20561" d="M1421.035 143.666a5.146 5.146 0 0 0 6.749.564l11.81 11.844a5.42 5.42 0 0 0 .567 6.769 5.31 5.31 0 1 0 7.5-7.52 5.147 5.147 0 0 0-6.749-.565l-11.823-11.844a5.4 5.4 0 0 0-.554-6.767 5.31 5.31 0 0 0-7.5 7.52z" class="cls-4" transform="translate(4776.982 1049.061)"/>
            <path id="Path_20562" d="M1450.427 197.973a5.147 5.147 0 0 0-6.749-.564l-31.225-31.3v44.462a5.246 5.246 0 1 0 1.872 0V170.62l28.036 28.105a5.418 5.418 0 0 0 .567 6.767 5.31 5.31 0 1 0 7.5-7.52z" class="cls-4" transform="translate(4773.371 1059.142)"/>
            <path id="Path_20563" d="M1418.8 278a5.26 5.26 0 0 0-.936 10.434v29.14l-22.038-22.09V201.11a5.258 5.258 0 1 0-6.182-5.17 5.173 5.173 0 0 0 4.31 5.17v95.22l25.782 25.849v-33.651A5.31 5.31 0 0 0 1418.8 278z" class="cls-4" transform="translate(4767.49 1067.003)"/>
            <path id="Path_20564" d="M1448.892 214.879a5.31 5.31 0 0 0-7.5-7.52 5.184 5.184 0 0 0-.554 6.769l-24.015 24.064a5.283 5.283 0 0 0-6.749 8.083 5.308 5.308 0 0 0 7.5 0 5.184 5.184 0 0 0 .567-6.767l24-24.064a5.146 5.146 0 0 0 6.749-.565z" class="cls-4" transform="translate(4773.496 1071.844)"/>
            <path id="Path_20565" d="M1460.931 280.711a5.324 5.324 0 0 0-7.513 0 5.182 5.182 0 0 0-.554 6.767l-29.644 29.7a5.284 5.284 0 0 0-6.749 8.085 5.31 5.31 0 0 0 7.5 0 5.17 5.17 0 0 0 .567-6.769l29.63-29.7a5.288 5.288 0 0 0 6.762-8.083z" class="cls-4" transform="translate(4775.534 1095.311)"/>
            <path id="Path_20566" d="M1416.4 347.443a5.31 5.31 0 0 0 7.5 7.52 5.168 5.168 0 0 0 .567-6.767l22.6-22.654a5.283 5.283 0 0 0 6.749-8.083 5.308 5.308 0 0 0-7.5 0 5.168 5.168 0 0 0-.567 6.767l-22.6 22.654a5.366 5.366 0 0 0-6.749.563z" class="cls-4" transform="translate(4775.512 1107.068)"/>
            <path id="Path_20569" d="M1322.316 85.638a5.26 5.26 0 0 0 .936-10.434V29.709l21.564 21.62v25.849a5.259 5.259 0 1 0 6.195 5.17 5.173 5.173 0 0 0-4.31-5.17v-26.7L1321.38 25.1v50.1a5.26 5.26 0 0 0 .936 10.434z" class="cls-4" transform="translate(4744.407 1014.031)"/>
            <path id="Path_20570" d="M1294.619 207.208a5.31 5.31 0 1 0 7.5-7.52 5.165 5.165 0 0 0-6.762-.565l-8.713-8.741V99.957l18.374-17.766a5.278 5.278 0 0 0 6.854-.47 5.311 5.311 0 1 0-8.159-.94l-18.953 18.33v91.93l9.293 9.306a5.277 5.277 0 0 0 .567 6.862z" class="cls-4" transform="translate(4734.129 1029.228)"/>
            <path id="Path_20571" d="M1345.319 93.449h-15.29a5.244 5.244 0 1 0-5.154 6.2 5.164 5.164 0 0 0 5.154-4.324h14.538l22.882 22.935v188.56h26.256V175.6l15.857 15.885a5.4 5.4 0 0 0 .554 6.767 5.315 5.315 0 1 0 7.513-7.52 5.166 5.166 0 0 0-6.762-.564l-19.033-19.082v133.858h-22.513V117.418z" class="cls-4" transform="translate(4745.221 1034.514)"/>
            <path id="Path_20572" d="M1327.215 265.345a5.253 5.253 0 1 0-6.195 5.17v91.929l25.795-25.849V148.411a5.258 5.258 0 1 0-6.195-5.169 5.183 5.183 0 0 0 4.31 5.169v187.526l-22.025 22.089v-87.418a5.273 5.273 0 0 0 4.31-5.264z" class="cls-4" transform="translate(4744.292 1050.143)"/>
            <path id="Path_20573" d="M1326.262 230.854l-24.662 24.627v51.793a5.259 5.259 0 1 0 1.872 0v-51.04l24.661-24.627V131.593l17.161-17.2a5.288 5.288 0 0 0 6.762-8.085 5.326 5.326 0 0 0-7.513 0 5.184 5.184 0 0 0-.554 6.769l-17.728 17.765z" class="cls-4" transform="translate(4738.115 1039.515)"/>
            <path id="Path_20574" d="M1396.008 292.11l-20.918-20.962V342.4a5.253 5.253 0 1 0 1.885 0v-66.739l17.715 17.765a5.42 5.42 0 0 0 .567 6.769 5.311 5.311 0 0 0 7.5-7.521 5.376 5.376 0 0 0-6.749-.564z" class="cls-4" transform="translate(4761.491 1092.748)"/>
            <path id="Path_20575" d="M1381.62 277.053a5.253 5.253 0 1 0-10.505 0 5.173 5.173 0 0 0 4.31 5.17v19.27l-71.73 71.908v-62.979a5.253 5.253 0 1 0-1.885 0v67.491l75.5-75.668v-20.022a5.173 5.173 0 0 0 4.31-5.17z" class="cls-4" transform="translate(4738.182 1092.953)"/>
            <path id="Path_20576" d="M1400.061 333.731a5.288 5.288 0 0 0 6.762-8.085 5.31 5.31 0 0 0-7.5 0 5.17 5.17 0 0 0-.567 6.769l-6.946 6.956v22.841a5.253 5.253 0 1 0 1.885 0v-22.09z" class="cls-4" transform="translate(4766.809 1109.688)"/>
            <path id="Path_20591" d="M1290.575 234.325a5.253 5.253 0 1 0-6.195 5.169v66.551a5.259 5.259 0 1 0 6.195 5.17 5.185 5.185 0 0 0-4.323-5.17v-66.551a5.111 5.111 0 0 0 4.323-5.169z" class="cls-4" transform="translate(4732.638 1079.283)"/>
            <path id="Path_20592" d="M1264.1 281.609a5.253 5.253 0 1 0 1.885 0v-37.6l43.417-43.521a5.284 5.284 0 0 0 6.749-8.085 5.311 5.311 0 0 0-7.5 0 5.186 5.186 0 0 0-.567 6.769l-43.984 44.086z" class="cls-4" transform="translate(4726.187 1067.06)"/>
            <path id="Path_20593" d="M1309.785 113.973a5.253 5.253 0 1 0-6.2 5.169v42.111a5.259 5.259 0 1 0 6.2 5.17 5.185 5.185 0 0 0-4.323-5.17v-42.111a5.112 5.112 0 0 0 4.323-5.169z" class="cls-4" transform="translate(4738.748 1040.779)"/>
            <path id="Path_20594" d="M1268.822 193.914v-70.5a5.246 5.246 0 1 0-1.872 0v71.251l13.972 14.006a5.4 5.4 0 0 0 .567 6.767 5.31 5.31 0 1 0 7.5-7.52 5.147 5.147 0 0 0-6.749-.564z" class="cls-4" transform="translate(4727.094 1042.146)"/>
            <path id="Path_20595" d="M1255.282 175.67a5.31 5.31 0 1 0-7.5 7.52 5.165 5.165 0 0 0 6.762.564l15.277 15.322v8.931a5.258 5.258 0 1 0 6.195 5.169 5.172 5.172 0 0 0-4.31-5.169v-9.682l-15.857-15.887a5.4 5.4 0 0 0-.567-6.767z" class="cls-4" transform="translate(4721.877 1061.706)"/>
            <path id="Path_20596" d="M1210.135 257.276a5.252 5.252 0 1 0-1.885 0v62.884h26.731V196.929l29.538-29.609v-59.5a5.258 5.258 0 1 0-6.182-5.169 5.172 5.172 0 0 0 4.31 5.169v58.749l-29.538 29.61v122.1h-22.974z" class="cls-4" transform="translate(4708.422 1037.156)"/>
            <path id="Path_20597" d="M1258.943 49.672L1212.52 96.2v22.841a5.253 5.253 0 1 0 1.885 0V96.953l44.538-44.653 26.731 26.789v11.75a5.258 5.258 0 1 0 6.182 5.17 5.173 5.173 0 0 0-4.31-5.17v-12.5z" class="cls-4" transform="translate(4709.781 1021.891)"/>
            <path id="Path_20598" d="M1230.31 163.849a5.259 5.259 0 1 0 1.872 0v-62.508l20.444-20.492a5.288 5.288 0 0 0 6.762-8.084 5.325 5.325 0 0 0-7.513 0 5.183 5.183 0 0 0-.554 6.768l-21.01 21.055z" class="cls-4" transform="translate(4715.439 1028.783)"/>
            <path id="Path_20599" d="M1237.463 22.881l9.938 9.964a5.4 5.4 0 0 0 .567 6.768 5.31 5.31 0 0 0 7.5-7.52 5.147 5.147 0 0 0-6.749-.564l-9.938-9.964a5.419 5.419 0 0 0-.567-6.768 5.31 5.31 0 0 0-7.5 7.52 5.365 5.365 0 0 0 6.749.564z" class="cls-4" transform="translate(4716.445 1010.238)"/>
            <path id="Path_20600" d="M1217.891 64.144a5.284 5.284 0 0 0-6.748 8.084 5.309 5.309 0 0 0 7.5 0 5.169 5.169 0 0 0 .567-6.768l12.284-12.314a5.284 5.284 0 0 0 6.749-8.084 5.309 5.309 0 0 0-7.5 0 5.2 5.2 0 0 0-.567 6.768z" class="cls-4" transform="translate(4710.223 1019.921)"/>
            <path id="Path_20601" d="M1167.264 42.056a5.315 5.315 0 1 0 7.513-7.52 5.165 5.165 0 0 0-6.762-.564l-15.382-15.416L1165.866 5.3l39.477 39.573h19.033a5.25 5.25 0 1 0 5.167-6.2 5.178 5.178 0 0 0-5.167 4.327h-18.282l-40.228-40.329-15.856 15.885 16.7 16.732a5.174 5.174 0 0 0 .553 6.768z" class="cls-4" transform="translate(4691.269 1006.854)"/>
            <path id="Path_20602" d="M1182.712 99.867a5.31 5.31 0 0 0-7.5 7.52 5.165 5.165 0 0 0 6.762.564l19.969 20.021V60.106a5.259 5.259 0 1 0-6.195-5.17 5.184 5.184 0 0 0 4.323 5.17v63.448l-16.792-16.825a5.528 5.528 0 0 0-.567-6.862z" class="cls-4" transform="translate(4698.794 1021.891)"/>
            <path id="Path_20603" d="M1155.99 50.384v55.835l23.91 23.969v19.74a5.259 5.259 0 1 0 1.872 0v-20.492l-23.91-23.969v-53.2h23.449V67.21a5.258 5.258 0 1 0 6.182 5.17 5.173 5.173 0 0 0-4.31-5.17V50.384z" class="cls-4" transform="translate(4693.17 1022.119)"/>
            <path id="Path_20604" d="M1192.6 127.3v26.22a5.253 5.253 0 1 0 1.885 0v-24.344h26.256v65.7a5.257 5.257 0 1 0 6.182 5.169 5.171 5.171 0 0 0-4.31-5.169V127.3z" class="cls-4" transform="translate(4703.445 1046.726)"/>
            <path id="Path_20605" d="M1179.225 268.28a5.253 5.253 0 1 0-6.182 5.17v94.75l26.717-26.789v-158.1a5.257 5.257 0 1 0-6.182-5.169 5.171 5.171 0 0 0 4.31 5.169v157.441l-22.974 23.03v-90.238a5.273 5.273 0 0 0 4.31-5.264z" class="cls-4" transform="translate(4697.22 1061.307)"/>
            <path id="Path_20606" d="M1253.317 208.688a5.253 5.253 0 1 0-10.505 0 5.172 5.172 0 0 0 4.31 5.169V307.2l22.974 23.03v53.67h-22.974v-15.886a5.246 5.246 0 1 0-1.872 0v17.765h26.731v-56.3l-22.974-23.03v-92.592a5.172 5.172 0 0 0 4.31-5.169z" class="cls-4" transform="translate(4720.191 1071.081)"/>
            <path id="Path_20607" d="M1246.755 303.51a5.4 5.4 0 0 0 .554 6.769 5.315 5.315 0 0 0 7.513-7.521 5.166 5.166 0 0 0-6.762-.564l-21.379-21.432v70.781a5.259 5.259 0 1 0 1.871 0v-66.268z" class="cls-4" transform="translate(4714.284 1095.824)"/>
            <path id="Path_20608" d="M1229.091 294.4a5.259 5.259 0 1 0-6.2-5.17 5.185 5.185 0 0 0 4.323 5.17v19.27l-70.807 70.967V321.66a5.246 5.246 0 1 0-1.872 0v67.491l74.551-74.729z" class="cls-4" transform="translate(4691.338 1096.849)"/>
            <path id="Path_20638" d="M1154.89 287.45a5.258 5.258 0 1 0 6.195 5.169 5.171 5.171 0 0 0-4.31-5.169v-51.229l15.751-15.792a5.284 5.284 0 0 0 6.748-8.085 5.31 5.31 0 0 0-7.5 0 5.2 5.2 0 0 0-.567 6.769l-16.318 16.355z" class="cls-4" transform="translate(4691.449 1073.439)"/>
            <path id="Path_20639" d="M1137.46 234.762v27.072a5.252 5.252 0 1 0 1.885 0v-26.32l48.294-48.408v-20.962a5.259 5.259 0 1 0-6.195-5.17 5.173 5.173 0 0 0 4.31 5.17v20.209z" class="cls-4" transform="translate(4685.906 1055.816)"/>
            <path id="Path_20640" d="M1135.33 139.58v43.052l14.538 14.569 18.756-18.8v-43.52a5.259 5.259 0 1 0-6.195-5.17 5.173 5.173 0 0 0 4.31 5.17v42.768l-16.871 16.92-12.668-12.689v-42.3a5.257 5.257 0 1 0-6.182-5.169 5.323 5.323 0 0 0 4.31 5.169z" class="cls-4" transform="translate(4685.229 1045.814)"/>
            <path id="Path_20641" d="M1105.218 199.351a5.315 5.315 0 0 0 7.513-7.52 5.164 5.164 0 0 0-6.762-.564l-38.356-38.446 22.131-22.183 29.92 29.985a5.4 5.4 0 0 0 .567 6.767 5.31 5.31 0 0 0 7.5-7.52 5.149 5.149 0 0 0-6.749-.564l-31.238-31.3-24.754 24.815 39.674 39.762a5.173 5.173 0 0 0 .554 6.767z" class="cls-4" transform="translate(4664.225 1046.953)"/>
            <path id="Path_20642" d="M1115.01 235.858a5.253 5.253 0 1 0 6.182-5.17v-37.412a5.257 5.257 0 1 0-6.182-5.169 5.171 5.171 0 0 0 4.31 5.169v37.412a5.1 5.1 0 0 0-4.31 5.17z" class="cls-4" transform="translate(4680.136 1064.497)"/>
            <path id="Path_20643" d="M1093.762 216.618a5.31 5.31 0 0 0-7.5 7.52 5.165 5.165 0 0 0 6.762.565l60.289 60.44v75.293h-44.169l-16.226-16.262a5.4 5.4 0 0 0-.554-6.767 5.31 5.31 0 1 0-7.5 7.52 5.147 5.147 0 0 0 6.749.564l16.779 16.825h46.808v-77.925l-60.869-61a5.4 5.4 0 0 0-.567-6.769z" class="cls-4" transform="translate(4670.053 1074.806)"/>
            <path id="Path_20644" d="M1071.374 244.392a5.31 5.31 0 0 0-7.5 7.52 5.146 5.146 0 0 0 6.749.564l11.625 11.656-11.256 11.279 34.982 35.061a5.42 5.42 0 0 0 .567 6.769 5.31 5.31 0 0 0 7.5-7.52 5.147 5.147 0 0 0-6.749-.565l-33.664-33.745 22.131-22.183 34.125 34.215a5.418 5.418 0 0 0 .567 6.767 5.31 5.31 0 0 0 7.5-7.52 5.146 5.146 0 0 0-6.749-.564l-35.443-35.526-12.192 12.22-11.625-11.656a5.438 5.438 0 0 0-.568-6.772z" class="cls-4" transform="translate(4663.377 1083.692)"/>
            <path id="Path_20645" d="M1066.186 234.414a5.259 5.259 0 0 0 .936-10.434V190.7h19.784l18.11 18.141a5.4 5.4 0 0 0 .554 6.769 5.31 5.31 0 1 0 7.5-7.52 5.146 5.146 0 0 0-6.749-.565l-18.664-18.7h-22.407v35.155a5.26 5.26 0 0 0 .936 10.434z" class="cls-4" transform="translate(4662.937 1066.41)"/>
            <path id="Path_20646" d="M1010.85 296.482V407.21l26.731-26.789v-73.13a5.253 5.253 0 1 0-1.885 0v72.378l-22.974 23.03V297.328l47.833-47.94v-42.581a5.259 5.259 0 1 0-6.195-5.17 5.173 5.173 0 0 0 4.31 5.17v41.83z" class="cls-4" transform="translate(4647.004 1068.825)"/>
            <path id="Path_20648" d="M1067.42 373.193a5.253 5.253 0 1 0 10.505 0 5.184 5.184 0 0 0-4.323-5.17v-30.362l-25.782-25.849v56.211a5.246 5.246 0 1 0 1.872 0v-51.7l22.038 22.089v29.61a5.173 5.173 0 0 0-4.31 5.17z" class="cls-4" transform="translate(4657.393 1105.758)"/>
            <path id="Path_20660" d="M1033.886 201.249a5.164 5.164 0 0 0 5.154-4.323h15.86V151.9a5.253 5.253 0 1 0-1.885 0v43.145h-13.975a5.244 5.244 0 1 0-5.154 6.2z" class="cls-4" transform="translate(4652.663 1051.259)"/>
            <path id="Path_20661" d="M1070.249 109.832a5.27 5.27 0 0 0 1.028-10.434V33.412l21.287 21.432v55.929l18.664 18.706a5.4 5.4 0 0 0 .554 6.767 5.315 5.315 0 0 0 7.513-7.52 5.165 5.165 0 0 0-6.762-.564l-18.1-18.142V54l-25.03-25.191V99.4a5.1 5.1 0 0 0-4.416 5.17 5.252 5.252 0 0 0 5.259 5.264z" class="cls-4" transform="translate(4664.225 1015.216)"/>
            <path id="Path_20662" d="M1034.526 186.1a5.26 5.26 0 0 0 .936-10.434v-62.974l23.91-23.97v23.97a5.259 5.259 0 1 0 6.195 5.17 5.173 5.173 0 0 0-4.31-5.17V84.211l-27.667 27.729v63.73a5.26 5.26 0 0 0 .936 10.434z" class="cls-4" transform="translate(4652.866 1032.942)"/>
            <path id="Path_20663" d="M1022.978 114.157v23.218l-23.157 23.311v42.581l19.032-19.081a5.288 5.288 0 0 0 6.762-8.083 5.324 5.324 0 0 0-7.513 0 5.182 5.182 0 0 0-.554 6.767l-15.856 15.885v-37.317l23.172-23.311v-23.97a5.1 5.1 0 0 0 4.4-5.169 5.253 5.253 0 1 0-10.505 0 5.166 5.166 0 0 0 4.218 5.169z" class="cls-4" transform="translate(4643.497 1039.184)"/>
            <path id="Path_20664" d="M996.555 141.672a5.312 5.312 0 1 0 7.5-7.52 5.154 5.154 0 0 0-6.754-.564l-4.5-4.513V48.144l6.377-6.392a5.284 5.284 0 0 0 6.75-8.084 5.309 5.309 0 0 0-7.5 0 5.181 5.181 0 0 0-.563 6.768l-6.94 6.956v82.53l5.067 5.078a5.056 5.056 0 0 0 .563 6.674z" class="cls-4" transform="translate(4640.667 1016.275)"/>
            <path id="Path_20665" d="M963.191 28.934l17.631 17.672v107.157l9.283 9.305a5.4 5.4 0 0 0 .563 6.769 5.311 5.311 0 0 0 7.5-7.52 5.152 5.152 0 0 0-6.752-.565l-8.72-8.742V45.854L964.5 27.618a5.4 5.4 0 0 0-.563-6.768 5.311 5.311 0 1 0-7.5 7.52 5.372 5.372 0 0 0 6.752.564z" class="cls-4" transform="translate(4629.205 1012.174)"/>
            <path id="Path_20666" d="M957.107 62.242v90.52l32.26 32.334a5.4 5.4 0 0 0 .562 6.769 5.311 5.311 0 1 0 7.5-7.52 5.15 5.15 0 0 0-6.751-.565l-31.7-31.771V62.242a5.258 5.258 0 1 0-6.19-5.17 5.327 5.327 0 0 0 4.314 5.17z" class="cls-4" transform="translate(4628.538 1022.575)"/>
            <path id="Path_20667" d="M941.325 207.812a5.26 5.26 0 0 0 .937-10.434V132.52l15.849 15.88a5.4 5.4 0 0 0 .563 6.769 5.312 5.312 0 0 0 7.5-7.521 5.153 5.153 0 0 0-6.752-.564l-19.037-19.081v69.37a5.26 5.26 0 0 0 .938 10.434z" class="cls-4" transform="translate(4623.22 1046.953)"/>
            <path id="Path_20668" d="M955.684 198.778V218.8a5.252 5.252 0 1 0 1.876 0v-19.27l28.133-28.2v21.149a5.259 5.259 0 1 0 6.19 5.17 5.177 5.177 0 0 0-4.314-5.17v-25.66z" class="cls-4" transform="translate(4628.085 1059.37)"/>
            <path id="Path_20669" d="M1013.42 191.032l-54.864 54.99v52.92l47.17 47.187v28.481a5.1 5.1 0 0 0-4.408 5.17 5.251 5.251 0 1 0 6.283-5.17v-29.233l-47.17-47.186v-51.418l52.988-53.109 31.318 31.4a5.4 5.4 0 0 0 .567 6.767 5.31 5.31 0 1 0 7.5-7.52 5.147 5.147 0 0 0-6.749-.564z" class="cls-4" transform="translate(4630.371 1067.117)"/>
            <path id="Path_20670" d="M983.664 243.707l20.725-20.774 21.941 22a5.42 5.42 0 0 0 .567 6.769 5.31 5.31 0 0 0 7.5-7.52 5.147 5.147 0 0 0-6.749-.565l-23.259-23.317-23.351 23.406 26.733 26.789-17.262 17.3a5.285 5.285 0 0 0-6.751 8.085 5.312 5.312 0 0 0 7.5 0 5.182 5.182 0 0 0 .563-6.769l18.572-18.611z" class="cls-4" transform="translate(4637.522 1076.48)"/>
            <path id="Path_20671" d="M965.008 301.719a5.311 5.311 0 0 0-7.5 7.52 5.151 5.151 0 0 0 6.751.565l10.878 10.9a5.4 5.4 0 0 0 .563 6.767 5.311 5.311 0 0 0 7.5-7.52 5.152 5.152 0 0 0-6.753-.564l-10.878-10.9a5.422 5.422 0 0 0-.563-6.769z" class="cls-4" transform="translate(4629.544 1102.033)"/>
            <path id="Path_20698" d="M937.229 350.99a5.311 5.311 0 0 0 7.5 7.52 5.18 5.18 0 0 0 .563-6.767l12.286-12.314a5.285 5.285 0 0 0 6.751-8.085 5.314 5.314 0 0 0-7.5 0 5.183 5.183 0 0 0-.562 6.769l-12.286 12.314a5.371 5.371 0 0 0-6.751.564z" class="cls-4" transform="translate(4623.095 1111.51)"/>
            <path id="Path_20699" d="M900.571 256.689v76.89l24.945 25h16.224a5.248 5.248 0 1 0 5.158-6.2 5.17 5.17 0 0 0-5.158 4.324h-15.474l-23.819-23.875v-75.387L943.99 215.8a5.285 5.285 0 0 0 6.753-8.085 5.314 5.314 0 0 0-7.5 0 5.183 5.183 0 0 0-.563 6.769z" class="cls-4" transform="translate(4611.927 1071.958)"/>
            <path id="Path_20700" d="M945.96 240.99a5.259 5.259 0 1 0-6.19-5.17 5.177 5.177 0 0 0 4.314 5.17v68.148l-15.755 15.792a5.285 5.285 0 0 0-6.752 8.085 5.311 5.311 0 0 0 7.5 0 5.183 5.183 0 0 0 .563-6.769l16.32-16.356z" class="cls-4" transform="translate(4618.116 1079.761)"/>
            <path id="Path_20701" d="M916.508 299.921a5.252 5.252 0 1 0 10.5 0 5.177 5.177 0 0 0-4.314-5.17v-40.23a5.252 5.252 0 1 0-1.876 0v40.23a5.177 5.177 0 0 0-4.31 5.17z" class="cls-4" transform="translate(4616.996 1084.09)"/>
            <path id="Path_20702" d="M885.274 257.79v96.16l7.128 7.143a5.365 5.365 0 1 0 1.313-1.316l-6.565-6.58v-94.561l47.359-47.47v-39.29l-18.569 18.611a5.285 5.285 0 0 0-6.753 8.085 5.314 5.314 0 0 0 7.5 0 5.183 5.183 0 0 0 .563-6.769l15.379-15.415v34.028z" class="cls-4" transform="translate(4607.061 1060.988)"/>
            <path id="Path_20712" d="M842.991 251.513a5.311 5.311 0 0 0-7.5 7.52 5.15 5.15 0 0 0 6.751.565l28.883 28.951v84.127a5.259 5.259 0 1 0 6.19 5.17 5.177 5.177 0 0 0-4.314-5.17V287.8l-29.446-29.515a5.423 5.423 0 0 0-.563-6.769z" class="cls-4" transform="translate(4590.733 1085.97)"/>
            <path id="Path_20714" d="M853.375 178.778a5.252 5.252 0 1 0-6.19 5.169v49.631l22.506 22.56 29.352-29.421a5.285 5.285 0 0 0 6.753-8.085 5.314 5.314 0 0 0-7.5 0 5.183 5.183 0 0 0-.563 6.769l-28.04 28.105-20.631-20.679v-48.88a5.1 5.1 0 0 0 4.314-5.169z" class="cls-4" transform="translate(4593.574 1061.512)"/>
            <path id="Path_20715" d="M938.732 142.714v14.571l-69.394 69.558v-60.629a5.252 5.252 0 1 0-1.876 0v65.14l73.146-73.318v-15.322a5.251 5.251 0 1 0-1.876 0z" class="cls-4" transform="translate(4600.023 1048.32)"/>
            <path id="Path_20716" d="M909.744 30.908v154.626l-22.975 23.03v-86.478a5.252 5.252 0 1 0-1.876 0v90.99l26.727-26.789V30.908a5.252 5.252 0 1 0-1.876 0z" class="cls-4" transform="translate(4605.568 1012.55)"/>
            <path id="Path_20717" d="M891.132 42.3v24.912L866.75 91.651v51.981a5.259 5.259 0 1 0 6.19 5.17 5.177 5.177 0 0 0-4.314-5.17V92.4l24.382-24.439V42.3a5.258 5.258 0 1 0-6.188-5.17 5.327 5.327 0 0 0 4.312 5.17z" class="cls-4" transform="translate(4599.797 1016.196)"/>
            <path id="Path_20718" d="M870.163 9.729l6.376 6.392v48.127l-47.825 47.939v115.428l27.664-27.729V127.7a5.252 5.252 0 1 0-1.876 0v71.438L830.587 223.1V112.938L878.414 65V15.275l-6.938-6.956a5.4 5.4 0 0 0-.563-6.768 5.311 5.311 0 0 0-7.5 7.52 5.266 5.266 0 0 0 6.753.658z" class="cls-4" transform="translate(4589.07 1006)"/>
            <path id="Path_20719" d="M794.081 161.738a5.311 5.311 0 1 0 8.065.659l17.911-17.954V84.754l23.914-23.969v-31.3a5.258 5.258 0 1 0-6.19-5.17 5.176 5.176 0 0 0 4.314 5.17v30.548L818.183 84v59.689l-17.349 17.39a5.254 5.254 0 0 0-6.753.657z" class="cls-4" transform="translate(4577.563 1012.095)"/>
            <path id="Path_20720" d="M811.766 152.28a5.264 5.264 0 1 0-5.251-5.264 5.257 5.257 0 0 0 5.251 5.264z" class="cls-4" transform="translate(4582.01 1051.351)"/>
            <path id="Path_20721" d="M725.394 55.871a5.249 5.249 0 0 0 5.251-5.264 5.176 5.176 0 0 0-4.314-5.17v-31.4l22.976 23.029V83.6l16.5 16.544a5.365 5.365 0 1 0 1.313-1.316l-15.942-15.98V36.225L724.456 9.436v36a5.26 5.26 0 0 0 .938 10.434z" class="cls-4" transform="translate(4554.537 1009.019)"/>
            <path id="Path_20722" d="M757.85 111.124a5.177 5.177 0 0 0 4.314 5.17v25.661l44.169 44.273h24.288v40.325l15.849 15.885a5.4 5.4 0 0 0 .563 6.769 5.311 5.311 0 0 0 7.5-7.52 5.152 5.152 0 0 0-6.752-.565L832.5 225.8v-41.452h-25.416L764.04 141.2v-24.91a5.259 5.259 0 1 0-6.19-5.17z" class="cls-4" transform="translate(4566.53 1039.868)"/>
            <path id="Path_20723" d="M820.037 233.784l-24.195 24.251v56.4l17.818 17.859a5.4 5.4 0 0 0 .563 6.769 5.311 5.311 0 0 0 7.5-7.52 5.151 5.151 0 0 0-6.751-.565l-17.256-17.3v-54.891l23.07-23.218h33.478l31.228 31.3a5.4 5.4 0 0 0 .563 6.769 5.311 5.311 0 0 0 7.5-7.52 5.152 5.152 0 0 0-6.753-.565l-31.786-31.863h-34.979z" class="cls-4" transform="translate(4578.614 1080.764)"/>
            <path id="Path_20727" d="M762.457 355.587a5.251 5.251 0 1 0 10.5 0 5.177 5.177 0 0 0-4.313-5.17v-59.5l-23.914-23.969v109.788a5.252 5.252 0 1 0 1.876 0V271.459l20.163 20.209v58.749a5.177 5.177 0 0 0-4.312 5.17z" class="cls-4" transform="translate(4560.985 1091.404)"/>
            <path id="Path_20732" d="M718.445 322.239a5.284 5.284 0 0 0-6.751 8.083 5.31 5.31 0 0 0 7.5 0 5.18 5.18 0 0 0 .563-6.767l12.567-12.6v-73.6a5.252 5.252 0 1 0-1.876 0v72.848z" class="cls-4" transform="translate(4551.356 1078.599)"/>
            <path id="Path_20733" d="M760.03 253.356a5.252 5.252 0 1 0 1.875 0V151.463l44.075 44.179v66.926L789.289 279.3a5.285 5.285 0 0 0-6.752 8.085 5.311 5.311 0 0 0 7.5 0 5.183 5.183 0 0 0 .563-6.769l17.255-17.3v-68.43l-47.825-47.935z" class="cls-4" transform="translate(4565.851 1053.014)"/>
            <path id="Path_20734" d="M773.5 247.849a5.251 5.251 0 1 0 10.5 0 5.174 5.174 0 0 0-4.314-5.169v-48.691a5.251 5.251 0 1 0-1.874 0v48.691a5.174 5.174 0 0 0-4.312 5.169z" class="cls-4" transform="translate(4571.509 1064.724)"/>
            <path id="Path_20735" d="M714.532 242.037a5.284 5.284 0 0 0-6.751 8.083 5.31 5.31 0 0 0 7.5 0 5.18 5.18 0 0 0 .563-6.767l41.637-41.736v-41.17a5.251 5.251 0 1 0-1.874 0v40.419z" class="cls-4" transform="translate(4550.112 1053.994)"/>
            <path id="Path_20736" d="M713.238 145.041a5.277 5.277 0 0 0 6.846.565l9.472 9.493-.095.094a5.344 5.344 0 0 0 0 7.521 5.2 5.2 0 0 0 2.814 1.5v42.111a5.568 5.568 0 0 0-3.564 1.316l-13.221-13.25a5.406 5.406 0 0 0-.563-6.769 5.311 5.311 0 0 0-7.5 7.52 5.152 5.152 0 0 0 6.753.565l13.409 13.441a5.3 5.3 0 1 0 8.441-1.316 5.852 5.852 0 0 0-1.876-1.221v-42.487a5.2 5.2 0 0 0 2.813-1.5 5.342 5.342 0 0 0 0-7.52 5.225 5.225 0 0 0-5.814-1.127L721.4 144.2a5.325 5.325 0 0 0-8.159-6.767 5.456 5.456 0 0 0 0 7.613z" class="cls-4" transform="translate(4549.999 1049.471)"/>
            <path id="Path_20737" d="M725.394 145.462a5.249 5.249 0 0 0 5.251-5.264 5.177 5.177 0 0 0-4.314-5.17V68.854l18.194 18.236a5.4 5.4 0 0 0 .563 6.768 5.311 5.311 0 0 0 7.5-7.52 5.151 5.151 0 0 0-6.751-.564l-21.381-21.432v70.781a5.208 5.208 0 0 0 .939 10.339z" class="cls-4" transform="translate(4554.537 1026.585)"/>
            <path id="Path_20738" d="M791.289 126.813a5.252 5.252 0 1 0 10.5 0 5.177 5.177 0 0 0-4.314-5.17v-45.87a5.252 5.252 0 1 0-1.876 0v45.87a5.177 5.177 0 0 0-4.31 5.17z" class="cls-4" transform="translate(4577.166 1026.904)"/>
            <path id="Path_20739" d="M740.064 128.867a5.251 5.251 0 1 0 10.5 0 5.177 5.177 0 0 0-4.314-5.17v-7.332a5.251 5.251 0 1 0-1.876 0v7.335a5.177 5.177 0 0 0-4.31 5.167z" class="cls-4" transform="translate(4560.873 1039.89)"/>
            <path id="Path_20740" d="M653.7 26.8l18.192 18.235h28.133l21.85 21.9a5.4 5.4 0 0 0 .563 6.768 5.311 5.311 0 0 0 7.5-7.52 5.152 5.152 0 0 0-6.752-.564l-22.409-22.466h-28.133l-17.629-17.671a5.4 5.4 0 0 0-.563-6.768 5.311 5.311 0 0 0-7.5 7.52 5.372 5.372 0 0 0 6.748.566z" class="cls-4" transform="translate(4530.763 1011.491)"/>
            <path id="Path_20741" d="M670.318 155.939a5.311 5.311 0 1 0-7.5 7.52 5.154 5.154 0 0 0 6.753.564l19.881 19.927v-40.983l-24.664-24.627v-43.8l15.939-15.04 34.6 34.685a5.4 5.4 0 0 0 .563 6.768 5.311 5.311 0 0 0 7.5-7.52 5.152 5.152 0 0 0-6.752-.564l-35.916-36-17.813 16.915v45.4l24.664 24.627v35.719l-16.692-16.73a5.307 5.307 0 0 0-.563-6.861z" class="cls-4" transform="translate(4535.809 1024.193)"/>
            <path id="Path_20742" d="M684.263 89.857a5.311 5.311 0 0 0-7.5 7.52 5.151 5.151 0 0 0 6.751.564l17.631 17.671v39.95a5.252 5.252 0 1 0 1.876 0v-40.7l-18.197-18.237a5.189 5.189 0 0 0-.562-6.768z" class="cls-4" transform="translate(4540.245 1034.251)"/>
            <path id="Path_20743" d="M708.2 288.528a5.251 5.251 0 1 0-1.876 0v29.14l-22.037-22.09V201.11a5.259 5.259 0 1 0-6.19-5.17 5.177 5.177 0 0 0 4.314 5.17v95.22l25.789 25.849z" class="cls-4" transform="translate(4541.161 1067.003)"/>
            <path id="Path_20744" d="M741.13 324.907a5.312 5.312 0 0 0-7.5-7.521 5.183 5.183 0 0 0-.563 6.769l-18.1 18.141a5.286 5.286 0 0 0-6.19.94 5.311 5.311 0 1 0 7.69.189l17.911-17.954a5.145 5.145 0 0 0 6.752-.564z" class="cls-4" transform="translate(4550.429 1107.045)"/>
            <path id="Path_20747" d="M610.775 85.638a5.26 5.26 0 0 0 .938-10.434V29.709l21.569 21.62v25.849a5.258 5.258 0 1 0 6.188 5.17 5.175 5.175 0 0 0-4.313-5.17v-26.7L609.838 25.1v50.1a5.26 5.26 0 0 0 .937 10.434z" class="cls-4" transform="translate(4518.078 1014.031)"/>
            <path id="Path_20748" d="M583.07 207.208a5.311 5.311 0 1 0 7.5-7.52 5.152 5.152 0 0 0-6.753-.565l-8.72-8.741V99.957l18.379-17.766a5.267 5.267 0 0 0 6.846-.47 5.312 5.312 0 0 0-7.409-7.614 5.423 5.423 0 0 0-.75 6.674l-18.939 18.33v91.93l9.283 9.306a5.526 5.526 0 0 0 .563 6.862z" class="cls-4" transform="translate(4507.804 1029.228)"/>
            <path id="Path_20749" d="M633.852 93.449h-15.286a5.248 5.248 0 1 0-5.158 6.2 5.17 5.17 0 0 0 5.158-4.324H633.1l22.882 22.935v188.56h26.258V175.6l15.849 15.885a5.4 5.4 0 0 0 .563 6.767 5.311 5.311 0 1 0 7.5-7.52 5.152 5.152 0 0 0-6.751-.564l-19.036-19.078v133.854h-22.506V117.418z" class="cls-4" transform="translate(4518.916 1034.514)"/>
            <path id="Path_20750" d="M615.672 265.345a5.251 5.251 0 1 0-6.19 5.17v91.929l25.79-25.849V148.411a5.258 5.258 0 1 0-6.19-5.169 5.174 5.174 0 0 0 4.314 5.169v187.526l-22.038 22.089v-87.418a5.191 5.191 0 0 0 4.314-5.264z" class="cls-4" transform="translate(4517.965 1050.143)"/>
            <path id="Path_20751" d="M614.723 230.854l-24.664 24.627v51.793a5.252 5.252 0 1 0 1.876 0v-51.04l24.665-24.628V131.593l17.161-17.2a5.285 5.285 0 0 0 6.751-8.085 5.312 5.312 0 0 0-7.5 0 5.182 5.182 0 0 0-.563 6.769l-17.726 17.763z" class="cls-4" transform="translate(4511.787 1039.515)"/>
            <path id="Path_20752" d="M683.154 293.426a5.4 5.4 0 0 0 .563 6.769 5.311 5.311 0 0 0 7.5-7.521 5.152 5.152 0 0 0-6.751-.564l-20.913-20.962V342.4a5.252 5.252 0 1 0 1.876 0v-66.739z" class="cls-4" transform="translate(4535.164 1092.748)"/>
            <path id="Path_20753" d="M670.078 277.053a5.252 5.252 0 1 0-10.5 0 5.177 5.177 0 0 0 4.314 5.17v19.27L592.147 373.4v-62.978a5.251 5.251 0 1 0-1.874 0v67.491l75.49-75.668v-20.022a5.094 5.094 0 0 0 4.314-5.17z" class="cls-4" transform="translate(4511.855 1092.953)"/>
            <path id="Path_20754" d="M688.527 333.731a5.285 5.285 0 0 0 6.751-8.085 5.314 5.314 0 0 0-7.5 0 5.183 5.183 0 0 0-.563 6.769l-6.938 6.956v22.841a5.251 5.251 0 1 0 1.874 0v-22.09z" class="cls-4" transform="translate(4540.482 1109.688)"/>
            <path id="Path_20768" d="M579.031 234.325a5.251 5.251 0 1 0-6.188 5.169v66.551a5.258 5.258 0 1 0 6.188 5.17 5.177 5.177 0 0 0-4.313-5.17v-66.551a5.025 5.025 0 0 0 4.313-5.169z" class="cls-4" transform="translate(4506.311 1079.283)"/>
            <path id="Path_20769" d="M552.565 281.609a5.251 5.251 0 1 0 1.876 0v-37.6l43.419-43.521a5.285 5.285 0 0 0 6.751-8.085 5.314 5.314 0 0 0-7.5 0 5.183 5.183 0 0 0-.561 6.769l-43.982 44.084z" class="cls-4" transform="translate(4499.861 1067.06)"/>
            <path id="Path_20770" d="M598.241 113.973a5.252 5.252 0 1 0-6.19 5.169v42.111a5.259 5.259 0 1 0 6.19 5.17 5.177 5.177 0 0 0-4.314-5.17v-42.111a5.026 5.026 0 0 0 4.314-5.169z" class="cls-4" transform="translate(4512.42 1040.779)"/>
            <path id="Path_20771" d="M557.285 193.914v-70.5a5.251 5.251 0 1 0-1.874 0v71.251l13.972 14.006a5.4 5.4 0 0 0 .563 6.767 5.311 5.311 0 1 0 7.5-7.52 5.15 5.15 0 0 0-6.751-.564z" class="cls-4" transform="translate(4500.766 1042.146)"/>
            <path id="Path_20772" d="M543.747 175.67a5.311 5.311 0 0 0-7.5 7.52 5.152 5.152 0 0 0 6.753.564l15.286 15.322v8.931a5.258 5.258 0 1 0 6.19 5.169 5.175 5.175 0 0 0-4.314-5.169v-9.682l-15.852-15.888a5.19 5.19 0 0 0-.563-6.767z" class="cls-4" transform="translate(4495.55 1061.706)"/>
            <path id="Path_20773" d="M498.589 257.276a5.251 5.251 0 1 0-1.876 0v62.884h26.727V196.929l29.54-29.609v-59.5a5.258 5.258 0 1 0-6.188-5.169 5.175 5.175 0 0 0 4.314 5.169v58.749l-29.541 29.61v122.1h-22.976z" class="cls-4" transform="translate(4482.096 1037.156)"/>
            <path id="Path_20774" d="M500.983 119.042a5.252 5.252 0 1 0 1.876 0V96.953L547.4 52.3l26.73 26.793v11.75a5.258 5.258 0 1 0 6.188 5.17 5.176 5.176 0 0 0-4.313-5.17v-12.5L547.4 49.672 500.983 96.2z" class="cls-4" transform="translate(4483.454 1021.891)"/>
            <path id="Path_20775" d="M518.77 163.849a5.252 5.252 0 1 0 1.876 0v-62.508l20.443-20.492a5.284 5.284 0 0 0 6.751-8.084 5.31 5.31 0 0 0-7.5 0 5.181 5.181 0 0 0-.563 6.768l-21.007 21.056z" class="cls-4" transform="translate(4489.111 1028.783)"/>
            <path id="Path_20776" d="M506.427 64.144a5.284 5.284 0 0 0-6.751 8.084 5.31 5.31 0 0 0 7.5 0 5.181 5.181 0 0 0 .563-6.768l12.286-12.314a5.284 5.284 0 0 0 6.751-8.084 5.312 5.312 0 0 0-7.5 0 5.181 5.181 0 0 0-.562 6.768z" class="cls-4" transform="translate(4483.917 1019.921)"/>
            <path id="Path_20777" d="M455.726 42.056a5.311 5.311 0 0 0 7.5-7.52 5.152 5.152 0 0 0-6.753-.564L441.1 18.556 454.32 5.3l39.48 39.575h19.037a5.248 5.248 0 1 0 5.158-6.2A5.17 5.17 0 0 0 512.837 43H494.55L454.32 2.671l-15.849 15.885 16.692 16.732a5.4 5.4 0 0 0 .563 6.768z" class="cls-4" transform="translate(4464.942 1006.854)"/>
            <path id="Path_20778" d="M471.177 99.867a5.311 5.311 0 1 0-7.5 7.52 5.151 5.151 0 0 0 6.751.564l19.972 20.02V60.106a5.258 5.258 0 1 0-6.188-5.17 5.176 5.176 0 0 0 4.313 5.17v63.448l-16.785-16.825a5.307 5.307 0 0 0-.563-6.862z" class="cls-4" transform="translate(4472.467 1021.891)"/>
            <path id="Path_20779" d="M444.447 50.384v55.835l23.914 23.969v19.74a5.252 5.252 0 1 0 1.876 0v-20.492l-23.914-23.969v-53.2h23.445V67.21a5.258 5.258 0 1 0 6.19 5.17 5.176 5.176 0 0 0-4.314-5.17V50.384z" class="cls-4" transform="translate(4466.843 1022.119)"/>
            <path id="Path_20780" d="M481.062 127.3v26.22a5.252 5.252 0 1 0 1.876 0v-24.344H509.2v65.7a5.258 5.258 0 1 0 6.19 5.169 5.174 5.174 0 0 0-4.314-5.169V127.3z" class="cls-4" transform="translate(4477.117 1046.726)"/>
            <path id="Path_20781" d="M467.685 268.28a5.251 5.251 0 1 0-6.19 5.17v94.75l26.727-26.789v-158.1a5.258 5.258 0 1 0-6.188-5.169 5.174 5.174 0 0 0 4.313 5.169v157.441l-22.975 23.03v-90.238a5.191 5.191 0 0 0 4.314-5.264z" class="cls-4" transform="translate(4470.894 1061.307)"/>
            <path id="Path_20782" d="M541.775 208.688a5.251 5.251 0 1 0-10.5 0 5.175 5.175 0 0 0 4.314 5.169V307.2l22.975 23.03v53.67h-22.977v-15.886a5.252 5.252 0 1 0-1.876 0v17.765h26.727v-56.3l-22.975-23.03v-92.592a5.092 5.092 0 0 0 4.313-5.169z" class="cls-4" transform="translate(4493.864 1071.081)"/>
            <path id="Path_20783" d="M535.281 303.51a5.4 5.4 0 0 0 .563 6.769 5.312 5.312 0 0 0 7.5-7.521 5.153 5.153 0 0 0-6.753-.564l-21.382-21.432v70.781a5.252 5.252 0 1 0 1.876 0v-66.268z" class="cls-4" transform="translate(4487.98 1095.824)"/>
            <path id="Path_20784" d="M517.551 294.4a5.259 5.259 0 1 0-6.19-5.17 5.177 5.177 0 0 0 4.314 5.17v19.27l-70.8 70.967V321.66a5.251 5.251 0 1 0-1.876 0v67.491l74.553-74.729z" class="cls-4" transform="translate(4465.01 1096.849)"/>
            <path id="Path_20785" d="M505.917 335.945a5.311 5.311 0 0 0-7.5-7.52 5.18 5.18 0 0 0-.563 6.767l-11.348 11.468a5.285 5.285 0 0 0-6.753 8.085 5.314 5.314 0 0 0 7.5 0 5.183 5.183 0 0 0 .563-6.769l11.35-11.376a5.265 5.265 0 0 0 6.751-.657z" class="cls-4" transform="translate(4477.581 1110.576)"/>
            <path id="Path_20816" d="M443.354 287.45a5.258 5.258 0 1 0 6.19 5.169 5.174 5.174 0 0 0-4.314-5.169v-51.229l15.755-15.792a5.285 5.285 0 0 0 6.751-8.085 5.314 5.314 0 0 0-7.5 0 5.183 5.183 0 0 0-.561 6.769l-16.318 16.355z" class="cls-4" transform="translate(4465.123 1073.439)"/>
            <path id="Path_20817" d="M425.923 234.762v27.072a5.252 5.252 0 1 0 1.876 0v-26.32l48.3-48.408v-20.962a5.259 5.259 0 1 0-6.19-5.17 5.177 5.177 0 0 0 4.314 5.17v20.209z" class="cls-4" transform="translate(4459.578 1055.816)"/>
            <path id="Path_20818" d="M423.789 139.58v43.052l14.535 14.568 18.756-18.8v-43.519a5.259 5.259 0 1 0-6.19-5.17 5.177 5.177 0 0 0 4.314 5.17v42.768l-16.881 16.92-12.659-12.69v-42.3a5.258 5.258 0 1 0-6.19-5.169 5.326 5.326 0 0 0 4.314 5.169z" class="cls-4" transform="translate(4458.899 1045.814)"/>
            <path id="Path_20819" d="M393.681 199.351a5.311 5.311 0 0 0 7.5-7.52 5.15 5.15 0 0 0-6.751-.564l-38.355-38.446 22.131-22.183 29.915 29.985a5.4 5.4 0 0 0 .563 6.767 5.311 5.311 0 0 0 7.5-7.52 5.153 5.153 0 0 0-6.753-.564l-31.228-31.3-24.756 24.815 39.668 39.762a5.4 5.4 0 0 0 .563 6.767z" class="cls-4" transform="translate(4437.899 1046.953)"/>
            <path id="Path_20820" d="M403.467 235.858a5.251 5.251 0 1 0 6.188-5.17v-37.412a5.258 5.258 0 1 0-6.188-5.169 5.174 5.174 0 0 0 4.314 5.169v37.412a5.1 5.1 0 0 0-4.314 5.17z" class="cls-4" transform="translate(4453.808 1064.497)"/>
            <path id="Path_20821" d="M382.227 216.618a5.311 5.311 0 0 0-7.5 7.52 5.152 5.152 0 0 0 6.753.565l60.3 60.44v75.293h-44.173l-16.223-16.262a5.4 5.4 0 0 0-.563-6.767 5.311 5.311 0 1 0-7.5 7.52 5.152 5.152 0 0 0 6.751.564l16.787 16.825h46.794v-77.925l-60.861-61a5.191 5.191 0 0 0-.563-6.769z" class="cls-4" transform="translate(4443.727 1074.806)"/>
            <path id="Path_20822" d="M392.342 308.592a5.406 5.406 0 0 0 .563 6.769 5.311 5.311 0 0 0 7.5-7.52 5.151 5.151 0 0 0-6.751-.565l-33.664-33.745 22.131-22.183 34.136 34.215a5.4 5.4 0 0 0 .563 6.767 5.311 5.311 0 1 0 7.5-7.52 5.152 5.152 0 0 0-6.752-.564l-35.448-35.53-24.756 24.815z" class="cls-4" transform="translate(4439.143 1085.571)"/>
            <path id="Path_20823" d="M354.646 234.414a5.26 5.26 0 0 0 .939-10.434V190.7h19.787l18.1 18.141a5.4 5.4 0 0 0 .563 6.769 5.311 5.311 0 0 0 7.5-7.52 5.152 5.152 0 0 0-6.753-.565l-18.661-18.7h-22.412v35.155a5.26 5.26 0 0 0 .937 10.434z" class="cls-4" transform="translate(4436.609 1066.41)"/>
            <path id="Path_20824" d="M299.308 296.482V407.21l26.727-26.789v-73.13a5.252 5.252 0 1 0-1.876 0v72.378L301.184 402.7V297.328l47.827-47.94v-42.581a5.259 5.259 0 1 0-6.19-5.17 5.177 5.177 0 0 0 4.314 5.17v41.83z" class="cls-4" transform="translate(4420.677 1068.825)"/>
            <path id="Path_20826" d="M355.878 373.193a5.251 5.251 0 1 0 10.5 0 5.177 5.177 0 0 0-4.314-5.17v-30.362l-25.788-25.849v56.211a5.251 5.251 0 1 0 1.876 0v-51.7l22.037 22.089v29.61a5.176 5.176 0 0 0-4.313 5.17z" class="cls-4" transform="translate(4431.064 1105.758)"/>
            <path id="Path_20837" d="M322.347 201.249a5.171 5.171 0 0 0 5.158-4.323h15.849V151.9a5.252 5.252 0 1 0-1.876 0v43.145H327.5a5.249 5.249 0 1 0-5.158 6.2z" class="cls-4" transform="translate(4426.334 1051.259)"/>
            <path id="Path_20838" d="M358.7 109.832a5.27 5.27 0 0 0 1.033-10.432V33.412l21.288 21.432v55.929l18.661 18.706a5.4 5.4 0 0 0 .563 6.767 5.311 5.311 0 0 0 7.5-7.52 5.152 5.152 0 0 0-6.753-.564L382.9 110.02V54l-25.04-25.191V99.4a5.1 5.1 0 0 0-4.406 5.17 5.248 5.248 0 0 0 5.251 5.264z" class="cls-4" transform="translate(4437.899 1015.216)"/>
            <path id="Path_20839" d="M322.986 186.1a5.26 5.26 0 0 0 .937-10.434v-62.974l23.914-23.97v23.97a5.258 5.258 0 1 0 6.188 5.17 5.176 5.176 0 0 0-4.313-5.17V84.211l-27.664 27.729v63.73a5.26 5.26 0 0 0 .938 10.434z" class="cls-4" transform="translate(4426.538 1032.942)"/>
            <path id="Path_20840" d="M311.514 114.157v23.218l-23.163 23.311v42.581l19.037-19.081a5.284 5.284 0 0 0 6.751-8.083 5.31 5.31 0 0 0-7.5 0 5.18 5.18 0 0 0-.563 6.767l-15.849 15.885v-37.317l23.163-23.311v-23.97a5.1 5.1 0 0 0 4.408-5.169 5.251 5.251 0 1 0-10.5 0 5.167 5.167 0 0 0 4.219 5.169z" class="cls-4" transform="translate(4417.192 1039.184)"/>
            <path id="Path_20841" d="M285.013 141.672a5.311 5.311 0 1 0 7.5-7.52 5.152 5.152 0 0 0-6.753-.564l-4.5-4.513V48.144l6.377-6.392a5.285 5.285 0 0 0 6.753-8.084 5.312 5.312 0 0 0-7.5 0 5.182 5.182 0 0 0-.563 6.768l-6.94 6.956v82.53L284.45 135a5.281 5.281 0 0 0 .563 6.672z" class="cls-4" transform="translate(4414.34 1016.275)"/>
            <path id="Path_20842" d="M251.721 28.934l17.631 17.672v107.157l9.283 9.305a5.406 5.406 0 0 0 .563 6.769 5.311 5.311 0 0 0 7.5-7.52 5.15 5.15 0 0 0-6.751-.565l-8.722-8.742V45.854l-18.191-18.236a5.4 5.4 0 0 0-.563-6.768 5.311 5.311 0 0 0-7.5 7.52 5.37 5.37 0 0 0 6.751.564z" class="cls-4" transform="translate(4402.901 1012.174)"/>
            <path id="Path_20843" d="M245.565 62.242v90.52l32.26 32.334a5.4 5.4 0 0 0 .563 6.769 5.311 5.311 0 0 0 7.5-7.52 5.152 5.152 0 0 0-6.752-.565l-31.7-31.771V62.242a5.258 5.258 0 1 0-6.188-5.17 5.327 5.327 0 0 0 4.313 5.17z" class="cls-4" transform="translate(4402.211 1022.575)"/>
            <path id="Path_20844" d="M229.783 207.812a5.26 5.26 0 0 0 .938-10.434V132.52l15.849 15.88a5.4 5.4 0 0 0 .561 6.769 5.312 5.312 0 0 0 7.5-7.521 5.152 5.152 0 0 0-6.751-.564l-19.037-19.081v69.37a5.26 5.26 0 0 0 .937 10.434z" class="cls-4" transform="translate(4396.893 1046.953)"/>
            <path id="Path_20845" d="M244.142 198.778V218.8a5.252 5.252 0 1 0 1.876 0v-19.27l28.133-28.2v21.149a5.259 5.259 0 1 0 6.19 5.17 5.177 5.177 0 0 0-4.314-5.17v-25.66z" class="cls-4" transform="translate(4401.758 1059.37)"/>
            <path id="Path_20846" d="M301.875 191.032l-54.86 54.99v52.92l47.169 47.187v28.481a5.1 5.1 0 0 0-4.406 5.17 5.251 5.251 0 1 0 6.282-5.17v-29.233l-47.169-47.187v-51.417l52.984-53.109 31.322 31.4a5.4 5.4 0 0 0 .563 6.767 5.311 5.311 0 1 0 7.5-7.52 5.15 5.15 0 0 0-6.751-.564z" class="cls-4" transform="translate(4404.043 1067.117)"/>
            <path id="Path_20847" d="M272.194 243.707l20.725-20.774 21.943 22a5.4 5.4 0 0 0 .563 6.769 5.311 5.311 0 0 0 7.5-7.52 5.152 5.152 0 0 0-6.752-.565L292.919 220.3l-23.351 23.406 26.727 26.794-17.255 17.2a5.285 5.285 0 0 0-6.752 8.083 5.311 5.311 0 0 0 7.5 0 5.181 5.181 0 0 0 .563-6.767L298.92 270.4z" class="cls-4" transform="translate(4411.218 1076.48)"/>
            <path id="Path_20848" d="M253.467 301.719a5.311 5.311 0 1 0-7.5 7.52 5.151 5.151 0 0 0 6.751.565l10.878 10.9a5.4 5.4 0 0 0 .563 6.767 5.311 5.311 0 0 0 7.5-7.52 5.152 5.152 0 0 0-6.753-.564l-10.878-10.9a5.19 5.19 0 0 0-.563-6.769z" class="cls-4" transform="translate(4403.218 1102.033)"/>
            <path id="Path_20877" d="M225.688 350.99a5.311 5.311 0 0 0 7.5 7.52 5.181 5.181 0 0 0 .562-6.767l12.286-12.314a5.285 5.285 0 0 0 6.751-8.085 5.314 5.314 0 0 0-7.5 0 5.183 5.183 0 0 0-.562 6.769l-12.192 12.314a5.513 5.513 0 0 0-6.845.564z" class="cls-4" transform="translate(4396.768 1111.51)"/>
            <path id="Path_20878" d="M189.03 256.689v76.89l24.945 25H230.2a5.249 5.249 0 1 0 5.158-6.2 5.171 5.171 0 0 0-5.158 4.321h-15.475l-23.819-23.875v-75.384l41.543-41.641a5.285 5.285 0 0 0 6.751-8.085 5.312 5.312 0 0 0-7.5 0 5.182 5.182 0 0 0-.563 6.769z" class="cls-4" transform="translate(4385.6 1071.958)"/>
            <path id="Path_20879" d="M234.4 240.99a5.259 5.259 0 1 0-6.19-5.17 5.177 5.177 0 0 0 4.314 5.17v68.148l-15.661 15.7a5.285 5.285 0 0 0-6.751 8.085 5.312 5.312 0 0 0 7.5 0 5.182 5.182 0 0 0 .563-6.769l16.314-16.354v-68.81z" class="cls-4" transform="translate(4391.812 1079.761)"/>
            <path id="Path_20880" d="M204.967 299.921a5.251 5.251 0 1 0 10.5 0 5.177 5.177 0 0 0-4.314-5.17v-40.23a5.251 5.251 0 1 0-1.876 0v40.23a5.177 5.177 0 0 0-4.31 5.17z" class="cls-4" transform="translate(4390.669 1084.09)"/>
            <path id="Path_20881" d="M173.733 257.79v96.16l7.127 7.143a5.366 5.366 0 1 0 1.313-1.316l-6.564-6.58v-94.561l47.357-47.47v-39.29l-18.474 18.517a5.284 5.284 0 0 0-6.751 8.083 5.311 5.311 0 0 0 7.5 0 5.181 5.181 0 0 0 .561-6.767l15.381-15.415v34.026z" class="cls-4" transform="translate(4380.734 1060.988)"/>
            <path id="Path_20891" d="M131.45 251.513a5.311 5.311 0 0 0-7.5 7.52 5.15 5.15 0 0 0 6.751.565l28.883 28.951v84.127a5.259 5.259 0 1 0 6.19 5.17 5.177 5.177 0 0 0-4.314-5.17V287.8l-29.446-29.515a5.19 5.19 0 0 0-.563-6.769z" class="cls-4" transform="translate(4364.407 1085.97)"/>
            <path id="Path_20893" d="M141.833 178.778a5.252 5.252 0 1 0-6.19 5.169v49.631l22.506 22.56 29.351-29.422a5.285 5.285 0 0 0 6.751-8.085 5.314 5.314 0 0 0-7.5 0 5.183 5.183 0 0 0-.563 6.769l-28.04 28.105-20.631-20.679v-48.88a5.026 5.026 0 0 0 4.314-5.169z" class="cls-4" transform="translate(4367.247 1061.512)"/>
            <path id="Path_20894" d="M227.191 142.714v14.571l-69.4 69.558v-60.629a5.252 5.252 0 1 0-1.876 0v65.14l73.147-73.318v-15.322a5.252 5.252 0 1 0-1.876 0z" class="cls-4" transform="translate(4373.696 1048.32)"/>
            <path id="Path_20895" d="M198.2 30.908v154.626l-22.975 23.03v-86.478a5.252 5.252 0 1 0-1.876 0v90.99l26.727-26.789V30.908a5.252 5.252 0 1 0-1.876 0z" class="cls-4" transform="translate(4379.24 1012.55)"/>
            <path id="Path_20896" d="M179.591 42.3v24.912l-24.382 24.439v51.981a5.258 5.258 0 1 0 6.188 5.17 5.177 5.177 0 0 0-4.313-5.17V92.4l24.382-24.439V42.3a5.258 5.258 0 1 0-6.19-5.17 5.326 5.326 0 0 0 4.314 5.17z" class="cls-4" transform="translate(4373.47 1016.196)"/>
            <path id="Path_20897" d="M158.692 9.729l6.377 6.392v48.127l-47.827 47.939v115.428l27.665-27.729V127.7a5.252 5.252 0 1 0-1.876 0v71.438L119.118 223.1V112.938L166.944 65V15.275l-6.938-6.956a5.4 5.4 0 0 0-.563-6.768 5.311 5.311 0 0 0-7.5 7.52 5.264 5.264 0 0 0 6.751.658z" class="cls-4" transform="translate(4362.766 1006)"/>
            <path id="Path_20898" d="M82.54 161.738a5.311 5.311 0 1 0 8.065.659l17.912-17.954V84.754l23.913-23.969v-31.3a5.258 5.258 0 1 0-6.19-5.17 5.176 5.176 0 0 0 4.314 5.17v30.548L106.642 84v59.689l-17.349 17.39a5.275 5.275 0 0 0-6.752.657z" class="cls-4" transform="translate(4351.235 1012.095)"/>
            <path id="Path_20899" d="M13.852 55.871a5.249 5.249 0 0 0 5.248-5.264 5.176 5.176 0 0 0-4.314-5.17v-31.4l22.98 23.034V83.6l16.5 16.544a5.365 5.365 0 1 0 1.313-1.316l-15.938-15.98V36.225L12.915 9.436v36a5.26 5.26 0 0 0 .938 10.434z" class="cls-4" transform="translate(4328.209 1009.019)"/>
            <path id="Path_20900" d="M46.309 111.124a5.177 5.177 0 0 0 4.314 5.17v25.661l44.169 44.273h24.288v40.325l15.849 15.885a5.4 5.4 0 0 0 .563 6.769 5.311 5.311 0 0 0 7.5-7.52 5.15 5.15 0 0 0-6.751-.565L120.956 225.8v-41.452H95.542L52.5 141.2v-24.91a5.259 5.259 0 1 0-6.189-5.17z" class="cls-4" transform="translate(4340.203 1039.868)"/>
            <path id="Path_20901" d="M108.5 233.784l-24.2 24.251v56.4l17.818 17.859a5.4 5.4 0 0 0 .563 6.769 5.311 5.311 0 0 0 7.5-7.52 5.151 5.151 0 0 0-6.752-.565l-17.255-17.3v-54.891l23.07-23.218h33.478l31.228 31.3a5.4 5.4 0 0 0 .563 6.769 5.311 5.311 0 0 0 7.5-7.52 5.152 5.152 0 0 0-6.753-.565l-31.785-31.863H108.5z" class="cls-4" transform="translate(4352.288 1080.764)"/>
            <path id="Path_20905" d="M50.915 355.587a5.252 5.252 0 1 0 10.5 0 5.177 5.177 0 0 0-4.314-5.17v-59.5l-23.91-23.97v109.789a5.251 5.251 0 1 0 1.876 0V271.459l20.162 20.209v58.749a5.177 5.177 0 0 0-4.314 5.17z" class="cls-4" transform="translate(4334.659 1091.404)"/>
            <path id="Path_20912" d="M21.666 331.672a5.311 5.311 0 0 0-7.5-7.52 5.181 5.181 0 0 0-.563 6.767l-9.472 9.588a5.372 5.372 0 0 0-6.752.564 5.342 5.342 0 0 0 0 7.52 5.311 5.311 0 0 0 7.5 0 5.181 5.181 0 0 0 .563-6.767l9.472-9.494a5.264 5.264 0 0 0 6.752-.657z" class="cls-4" transform="translate(4324.147 1109.209)"/>
            <path id="Path_20913" d="M20.761 237.429a5.251 5.251 0 1 0-1.876 0v72.848l-11.91 11.939a5.37 5.37 0 0 0-6.752.564 5.342 5.342 0 0 0 0 7.52 5.311 5.311 0 0 0 7.5 0 5.181 5.181 0 0 0 .563-6.767l12.566-12.6v-73.504z" class="cls-4" transform="translate(4325.052 1078.622)"/>
            <path id="Path_20914" d="M48.488 253.379a5.251 5.251 0 1 0 1.876 0V151.486l44.075 44.179v66.926l-16.6 16.638a5.285 5.285 0 0 0-6.752 8.085 5.313 5.313 0 0 0 7.5 0 5.183 5.183 0 0 0 .563-6.769l17.255-17.295v-68.43l-47.826-47.94v106.5z" class="cls-4" transform="translate(4339.524 1052.991)"/>
            <path id="Path_20915" d="M61.961 247.849a5.252 5.252 0 1 0 10.5 0 5.174 5.174 0 0 0-4.314-5.169v-48.691a5.252 5.252 0 1 0-1.876 0v48.691a5.174 5.174 0 0 0-4.31 5.169z" class="cls-4" transform="translate(4345.182 1064.724)"/>
            <path id="Path_20916" d="M3.062 242.037a5.37 5.37 0 0 0-6.752.564 5.342 5.342 0 0 0 0 7.52 5.311 5.311 0 0 0 7.5 0 5.181 5.181 0 0 0 .563-6.767l41.637-41.736v-41.17a5.252 5.252 0 1 0-1.875 0v40.419z" class="cls-4" transform="translate(4323.807 1053.994)"/>
            <path id="Path_20917" d="M2.729 195.613L22.7 215.634v-58.56L9.856 144.2a5.366 5.366 0 1 0-1.313 1.316l12.191 12.22v53.3L3.948 194.2a5.4 5.4 0 0 0-.563-6.767 5.311 5.311 0 0 0-7.5 0 5.342 5.342 0 0 0 0 7.52 5.406 5.406 0 0 0 6.846.659z" class="cls-4" transform="translate(4323.671 1049.471)"/>
            <path id="Path_20918" d="M13.852 145.485a5.249 5.249 0 0 0 5.251-5.264 5.177 5.177 0 0 0-4.314-5.17V68.877l18.194 18.235a5.4 5.4 0 0 0 .563 6.768 5.311 5.311 0 0 0 7.5-7.52 5.152 5.152 0 0 0-6.746-.56L12.915 64.271v70.78a5.26 5.26 0 0 0 .938 10.434z" class="cls-4" transform="translate(4328.209 1026.562)"/>
            <path id="Path_20919" d="M79.748 126.813a5.252 5.252 0 1 0 10.5 0 5.177 5.177 0 0 0-4.314-5.17v-45.87a5.251 5.251 0 1 0-1.876 0v45.87a5.177 5.177 0 0 0-4.31 5.17z" class="cls-4" transform="translate(4350.839 1026.904)"/>
            <path id="Path_20920" d="M28.522 128.867a5.252 5.252 0 1 0 10.5 0 5.177 5.177 0 0 0-4.314-5.17v-7.332a5.252 5.252 0 1 0-1.875 0v7.335a5.177 5.177 0 0 0-4.314 5.17z" class="cls-4" transform="translate(4334.545 1039.89)"/>
        </g>
    </g>
</svg>
