<svg xmlns="http://www.w3.org/2000/svg" width="66" height="75" viewBox="0 0 66 75">
  <g id="Group_14677" data-name="Group 14677" transform="translate(-1999 -202)" opacity="0.48">
    <circle id="Ellipse_1466" data-name="Ellipse 1466" cx="1.5" cy="1.5" r="1.5" transform="translate(1999 229)" fill="#fff" opacity="0.2"/>
    <circle id="Ellipse_1466-2" data-name="Ellipse 1466" cx="1.5" cy="1.5" r="1.5" transform="translate(2008 229)" fill="#fff" opacity="0.2"/>
    <circle id="Ellipse_1466-3" data-name="Ellipse 1466" cx="1.5" cy="1.5" r="1.5" transform="translate(2017 229)" fill="#fff" opacity="0.2"/>
    <circle id="Ellipse_1466-4" data-name="Ellipse 1466" cx="1.5" cy="1.5" r="1.5" transform="translate(2026 229)" fill="#fff" opacity="0.2"/>
    <circle id="Ellipse_1466-5" data-name="Ellipse 1466" cx="1.5" cy="1.5" r="1.5" transform="translate(1999 238)" fill="#fff" opacity="0.2"/>
    <circle id="Ellipse_1466-6" data-name="Ellipse 1466" cx="1.5" cy="1.5" r="1.5" transform="translate(2008 238)" fill="#fff" opacity="0.2"/>
    <circle id="Ellipse_1466-7" data-name="Ellipse 1466" cx="1.5" cy="1.5" r="1.5" transform="translate(2017 238)" fill="#fff" opacity="0.2"/>
    <circle id="Ellipse_1466-8" data-name="Ellipse 1466" cx="1.5" cy="1.5" r="1.5" transform="translate(2026 238)" fill="#fff" opacity="0.2"/>
    <circle id="Ellipse_1466-9" data-name="Ellipse 1466" cx="1.5" cy="1.5" r="1.5" transform="translate(1999 247)" fill="#fff" opacity="0.2"/>
    <circle id="Ellipse_1466-10" data-name="Ellipse 1466" cx="1.5" cy="1.5" r="1.5" transform="translate(2008 247)" fill="#fff" opacity="0.2"/>
    <circle id="Ellipse_1466-11" data-name="Ellipse 1466" cx="1.5" cy="1.5" r="1.5" transform="translate(2017 247)" fill="#fff" opacity="0.2"/>
    <circle id="Ellipse_1466-12" data-name="Ellipse 1466" cx="1.5" cy="1.5" r="1.5" transform="translate(2026 247)" fill="#fff" opacity="0.2"/>
    <circle id="Ellipse_1466-13" data-name="Ellipse 1466" cx="1.5" cy="1.5" r="1.5" transform="translate(2035 247)" fill="#fff" opacity="0.2"/>
    <circle id="Ellipse_1466-14" data-name="Ellipse 1466" cx="1.5" cy="1.5" r="1.5" transform="translate(1999 256)" fill="#fff" opacity="0.2"/>
    <circle id="Ellipse_1466-15" data-name="Ellipse 1466" cx="1.5" cy="1.5" r="1.5" transform="translate(2008 256)" fill="#fff" opacity="0.2"/>
    <circle id="Ellipse_1466-16" data-name="Ellipse 1466" cx="1.5" cy="1.5" r="1.5" transform="translate(2017 256)" fill="#fff" opacity="0.2"/>
    <circle id="Ellipse_1466-17" data-name="Ellipse 1466" cx="1.5" cy="1.5" r="1.5" transform="translate(2026 256)" fill="#fff" opacity="0.2"/>
    <circle id="Ellipse_1466-18" data-name="Ellipse 1466" cx="1.5" cy="1.5" r="1.5" transform="translate(2035 256)" fill="#fff" opacity="0.2"/>
    <circle id="Ellipse_1466-19" data-name="Ellipse 1466" cx="1.5" cy="1.5" r="1.5" transform="translate(2044 256)" fill="#fff" opacity="0.2"/>
    <circle id="Ellipse_1466-20" data-name="Ellipse 1466" cx="1.5" cy="1.5" r="1.5" transform="translate(1999 265)" fill="#fff" opacity="0.2"/>
    <circle id="Ellipse_1466-21" data-name="Ellipse 1466" cx="1.5" cy="1.5" r="1.5" transform="translate(2008 265)" fill="#fff" opacity="0.2"/>
    <circle id="Ellipse_1466-22" data-name="Ellipse 1466" cx="1.5" cy="1.5" r="1.5" transform="translate(2017 265)" fill="#fff" opacity="0.2"/>
    <circle id="Ellipse_1466-23" data-name="Ellipse 1466" cx="1.5" cy="1.5" r="1.5" transform="translate(2026 265)" fill="#fff" opacity="0.2"/>
    <circle id="Ellipse_1466-24" data-name="Ellipse 1466" cx="1.5" cy="1.5" r="1.5" transform="translate(2035 265)" fill="#fff" opacity="0.2"/>
    <circle id="Ellipse_1466-25" data-name="Ellipse 1466" cx="1.5" cy="1.5" r="1.5" transform="translate(2044 265)" fill="#fff" opacity="0.2"/>
    <circle id="Ellipse_1466-26" data-name="Ellipse 1466" cx="1.5" cy="1.5" r="1.5" transform="translate(2053 265)" fill="#fff" opacity="0.2"/>
    <circle id="Ellipse_1466-27" data-name="Ellipse 1466" cx="1.5" cy="1.5" r="1.5" transform="translate(1999 274)" fill="#fff" opacity="0.2"/>
    <circle id="Ellipse_1466-28" data-name="Ellipse 1466" cx="1.5" cy="1.5" r="1.5" transform="translate(2008 274)" fill="#fff" opacity="0.2"/>
    <circle id="Ellipse_1466-29" data-name="Ellipse 1466" cx="1.5" cy="1.5" r="1.5" transform="translate(2017 274)" fill="#fff" opacity="0.2"/>
    <circle id="Ellipse_1466-30" data-name="Ellipse 1466" cx="1.5" cy="1.5" r="1.5" transform="translate(2026 274)" fill="#fff" opacity="0.2"/>
    <circle id="Ellipse_1466-31" data-name="Ellipse 1466" cx="1.5" cy="1.5" r="1.5" transform="translate(2035 274)" fill="#fff" opacity="0.2"/>
    <circle id="Ellipse_1466-32" data-name="Ellipse 1466" cx="1.5" cy="1.5" r="1.5" transform="translate(2044 274)" fill="#fff" opacity="0.2"/>
    <circle id="Ellipse_1466-33" data-name="Ellipse 1466" cx="1.5" cy="1.5" r="1.5" transform="translate(2053 274)" fill="#fff" opacity="0.2"/>
    <circle id="Ellipse_1466-34" data-name="Ellipse 1466" cx="1.5" cy="1.5" r="1.5" transform="translate(2062 274)" fill="#fff" opacity="0.2"/>
    <circle id="Ellipse_1505" data-name="Ellipse 1505" cx="1.5" cy="1.5" r="1.5" transform="translate(1999 220)" fill="#fff" opacity="0.2"/>
    <circle id="Ellipse_1506" data-name="Ellipse 1506" cx="1.5" cy="1.5" r="1.5" transform="translate(2008 220)" fill="#fff" opacity="0.2"/>
    <circle id="Ellipse_1507" data-name="Ellipse 1507" cx="1.5" cy="1.5" r="1.5" transform="translate(2017 220)" fill="#fff" opacity="0.2"/>
    <circle id="Ellipse_1508" data-name="Ellipse 1508" cx="1.5" cy="1.5" r="1.5" transform="translate(1999 211)" fill="#fff" opacity="0.2"/>
    <circle id="Ellipse_1509" data-name="Ellipse 1509" cx="1.5" cy="1.5" r="1.5" transform="translate(1999 202)" fill="#fff" opacity="0.2"/>
    <circle id="Ellipse_1510" data-name="Ellipse 1510" cx="1.5" cy="1.5" r="1.5" transform="translate(2008 211)" fill="#fff" opacity="0.2"/>
  </g>
</svg>
