<svg xmlns="http://www.w3.org/2000/svg" width="66" height="75" viewBox="0 0 66 75">
  <g id="Group_16164" data-name="Group 16164" opacity="0.48">
    <circle id="Ellipse_1466" data-name="Ellipse 1466" cx="1.5" cy="1.5" r="1.5" transform="translate(63 45)" fill="#fff" opacity="0.2"/>
    <circle id="Ellipse_1466-2" data-name="Ellipse 1466" cx="1.5" cy="1.5" r="1.5" transform="translate(54 45)" fill="#fff" opacity="0.2"/>
    <circle id="Ellipse_1466-3" data-name="Ellipse 1466" cx="1.5" cy="1.5" r="1.5" transform="translate(45 45)" fill="#fff" opacity="0.2"/>
    <circle id="Ellipse_1466-4" data-name="Ellipse 1466" cx="1.5" cy="1.5" r="1.5" transform="translate(36 45)" fill="#fff" opacity="0.2"/>
    <circle id="Ellipse_1466-5" data-name="Ellipse 1466" cx="1.5" cy="1.5" r="1.5" transform="translate(63 36)" fill="#fff" opacity="0.2"/>
    <circle id="Ellipse_1466-6" data-name="Ellipse 1466" cx="1.5" cy="1.5" r="1.5" transform="translate(54 36)" fill="#fff" opacity="0.2"/>
    <circle id="Ellipse_1466-7" data-name="Ellipse 1466" cx="1.5" cy="1.5" r="1.5" transform="translate(45 36)" fill="#fff" opacity="0.2"/>
    <circle id="Ellipse_1466-8" data-name="Ellipse 1466" cx="1.5" cy="1.5" r="1.5" transform="translate(36 36)" fill="#fff" opacity="0.2"/>
    <circle id="Ellipse_1466-9" data-name="Ellipse 1466" cx="1.5" cy="1.5" r="1.5" transform="translate(63 27)" fill="#fff" opacity="0.2"/>
    <circle id="Ellipse_1466-10" data-name="Ellipse 1466" cx="1.5" cy="1.5" r="1.5" transform="translate(54 27)" fill="#fff" opacity="0.2"/>
    <circle id="Ellipse_1466-11" data-name="Ellipse 1466" cx="1.5" cy="1.5" r="1.5" transform="translate(45 27)" fill="#fff" opacity="0.2"/>
    <circle id="Ellipse_1466-12" data-name="Ellipse 1466" cx="1.5" cy="1.5" r="1.5" transform="translate(36 27)" fill="#fff" opacity="0.2"/>
    <circle id="Ellipse_1466-13" data-name="Ellipse 1466" cx="1.5" cy="1.5" r="1.5" transform="translate(27 27)" fill="#fff" opacity="0.2"/>
    <circle id="Ellipse_1466-14" data-name="Ellipse 1466" cx="1.5" cy="1.5" r="1.5" transform="translate(63 18)" fill="#fff" opacity="0.2"/>
    <circle id="Ellipse_1466-15" data-name="Ellipse 1466" cx="1.5" cy="1.5" r="1.5" transform="translate(54 18)" fill="#fff" opacity="0.2"/>
    <circle id="Ellipse_1466-16" data-name="Ellipse 1466" cx="1.5" cy="1.5" r="1.5" transform="translate(45 18)" fill="#fff" opacity="0.2"/>
    <circle id="Ellipse_1466-17" data-name="Ellipse 1466" cx="1.5" cy="1.5" r="1.5" transform="translate(36 18)" fill="#fff" opacity="0.2"/>
    <circle id="Ellipse_1466-18" data-name="Ellipse 1466" cx="1.5" cy="1.5" r="1.5" transform="translate(27 18)" fill="#fff" opacity="0.2"/>
    <circle id="Ellipse_1466-19" data-name="Ellipse 1466" cx="1.5" cy="1.5" r="1.5" transform="translate(18 18)" fill="#fff" opacity="0.2"/>
    <circle id="Ellipse_1466-20" data-name="Ellipse 1466" cx="1.5" cy="1.5" r="1.5" transform="translate(63 9)" fill="#fff" opacity="0.2"/>
    <circle id="Ellipse_1466-21" data-name="Ellipse 1466" cx="1.5" cy="1.5" r="1.5" transform="translate(54 9)" fill="#fff" opacity="0.2"/>
    <circle id="Ellipse_1466-22" data-name="Ellipse 1466" cx="1.5" cy="1.5" r="1.5" transform="translate(45 9)" fill="#fff" opacity="0.2"/>
    <circle id="Ellipse_1466-23" data-name="Ellipse 1466" cx="1.5" cy="1.5" r="1.5" transform="translate(36 9)" fill="#fff" opacity="0.2"/>
    <circle id="Ellipse_1466-24" data-name="Ellipse 1466" cx="1.5" cy="1.5" r="1.5" transform="translate(27 9)" fill="#fff" opacity="0.2"/>
    <circle id="Ellipse_1466-25" data-name="Ellipse 1466" cx="1.5" cy="1.5" r="1.5" transform="translate(18 9)" fill="#fff" opacity="0.2"/>
    <circle id="Ellipse_1466-26" data-name="Ellipse 1466" cx="1.5" cy="1.5" r="1.5" transform="translate(9 9)" fill="#fff" opacity="0.2"/>
    <circle id="Ellipse_1466-27" data-name="Ellipse 1466" cx="1.5" cy="1.5" r="1.5" transform="translate(63)" fill="#fff" opacity="0.2"/>
    <circle id="Ellipse_1466-28" data-name="Ellipse 1466" cx="1.5" cy="1.5" r="1.5" transform="translate(54)" fill="#fff" opacity="0.2"/>
    <circle id="Ellipse_1466-29" data-name="Ellipse 1466" cx="1.5" cy="1.5" r="1.5" transform="translate(45)" fill="#fff" opacity="0.2"/>
    <circle id="Ellipse_1466-30" data-name="Ellipse 1466" cx="1.5" cy="1.5" r="1.5" transform="translate(36)" fill="#fff" opacity="0.2"/>
    <circle id="Ellipse_1466-31" data-name="Ellipse 1466" cx="1.5" cy="1.5" r="1.5" transform="translate(27)" fill="#fff" opacity="0.2"/>
    <circle id="Ellipse_1466-32" data-name="Ellipse 1466" cx="1.5" cy="1.5" r="1.5" transform="translate(18)" fill="#fff" opacity="0.2"/>
    <circle id="Ellipse_1466-33" data-name="Ellipse 1466" cx="1.5" cy="1.5" r="1.5" transform="translate(9)" fill="#fff" opacity="0.2"/>
    <circle id="Ellipse_1466-34" data-name="Ellipse 1466" cx="1.5" cy="1.5" r="1.5" fill="#fff" opacity="0.2"/>
    <circle id="Ellipse_1505" data-name="Ellipse 1505" cx="1.5" cy="1.5" r="1.5" transform="translate(63 54)" fill="#fff" opacity="0.2"/>
    <circle id="Ellipse_1506" data-name="Ellipse 1506" cx="1.5" cy="1.5" r="1.5" transform="translate(54 54)" fill="#fff" opacity="0.2"/>
    <circle id="Ellipse_1507" data-name="Ellipse 1507" cx="1.5" cy="1.5" r="1.5" transform="translate(45 54)" fill="#fff" opacity="0.2"/>
    <circle id="Ellipse_1508" data-name="Ellipse 1508" cx="1.5" cy="1.5" r="1.5" transform="translate(63 63)" fill="#fff" opacity="0.2"/>
    <circle id="Ellipse_1509" data-name="Ellipse 1509" cx="1.5" cy="1.5" r="1.5" transform="translate(63 72)" fill="#fff" opacity="0.2"/>
    <circle id="Ellipse_1510" data-name="Ellipse 1510" cx="1.5" cy="1.5" r="1.5" transform="translate(54 63)" fill="#fff" opacity="0.2"/>
  </g>
</svg>
